<svg width="1200" height="630" viewBox="0 0 1200 630" xmlns="http://www.w3.org/2000/svg">
  <defs>
    <linearGradient id="bg-gradient" x1="0%" y1="0%" x2="100%" y2="100%">
      <stop offset="0%" style="stop-color:#14b8a6;stop-opacity:1" />
      <stop offset="100%" style="stop-color:#0d9488;stop-opacity:1" />
    </linearGradient>
    <linearGradient id="candle-glow" x1="50%" y1="0%" x2="50%" y2="100%">
      <stop offset="0%" style="stop-color:#fbbf24;stop-opacity:0.8" />
      <stop offset="100%" style="stop-color:#f59e0b;stop-opacity:0" />
    </linearGradient>
  </defs>
  
  <!-- Background -->
  <rect width="1200" height="630" fill="url(#bg-gradient)"/>
  
  <!-- Decorative circles -->
  <circle cx="100" cy="100" r="150" fill="white" fill-opacity="0.05"/>
  <circle cx="1100" cy="530" r="200" fill="white" fill-opacity="0.05"/>
  
  <!-- Candle icon -->
  <g transform="translate(540, 150)">
    <!-- Flame glow -->
    <ellipse cx="60" cy="80" rx="40" ry="60" fill="url(#candle-glow)"/>
    <!-- Flame -->
    <path d="M60 40 Q80 70 60 100 Q40 70 60 40" fill="#fbbf24"/>
    <path d="M60 50 Q70 70 60 90 Q50 70 60 50" fill="#fef3c7"/>
    <!-- Candle body -->
    <rect x="35" y="100" width="50" height="80" rx="5" fill="#fef3c7"/>
    <rect x="35" y="100" width="50" height="80" rx="5" fill="white" fill-opacity="0.3"/>
  </g>
  
  <!-- Main text -->
  <text x="600" y="320" font-family="Georgia, serif" font-size="56" font-weight="bold" fill="white" text-anchor="middle">
    My Kind Kandles &amp; Boutique
  </text>
  
  <!-- Tagline -->
  <text x="600" y="380" font-family="Georgia, serif" font-size="28" fill="white" fill-opacity="0.9" text-anchor="middle" font-style="italic">
    ✨ Do All Things With Kindness ✨
  </text>
  
  <!-- Description -->
  <text x="600" y="450" font-family="Arial, sans-serif" font-size="22" fill="white" fill-opacity="0.8" text-anchor="middle">
    Natural Handmade Candles • Skincare • Body Oils • Boutique Items
  </text>
  
  <!-- Location -->
  <text x="600" y="520" font-family="Arial, sans-serif" font-size="18" fill="white" fill-opacity="0.7" text-anchor="middle">
    📍 Maryland, USA
  </text>
  
  <!-- Website -->
  <text x="600" y="580" font-family="Arial, sans-serif" font-size="20" fill="white" fill-opacity="0.9" text-anchor="middle">
    kindkandlesboutique.com
  </text>
</svg>

